<svg enable-background="new 0 0 1024 1024" viewBox="0 0 1024 1024" xmlns="http://www.w3.org/2000/svg"><path d="m578.962036 780.954712c-7.361938-9.488281-8.645752-20.372681-9.018738-31.460693-.229614-6.826966-.125183-13.66504-.173706-20.498169-.385986-54.325562-.259704-108.660828-1.296142-162.973999-1.151245-60.330201-.775574-120.653931-.613159-180.97934.069946-25.978241 1.006286-51.963196 2.01007-77.927246.961914-24.88205 14.392578-39.154022 39.23877-42.44928 31.006836-4.112244 62.124267-3.66394 93.250244-1.905365 8.813721.497955 14.017883 5.22702 14.845459 12.718567 1.133545 10.260925-2.943604 17.5466-11.60437 19.904602-9.311524 2.535187-18.820435 4.367767-28.080689 7.064789-20.144897 5.867157-37.306274 16.267731-48.132324 34.867828-6.710693 11.529419-9.151794 24.590546-11.065613 37.632721-5.411987 36.880554-5.038452 74.052185-5.151794 111.180115-.113525 37.16568-.100647 74.334442.272522 111.497711.217285 21.645081.803406 43.307861 2.054199 64.914673 1.059693 18.304932 4.504822 36.221497 11.387695 53.441833 9.369935 23.442627 26.227417 37.511902 50.796265 42.709534 9.116394 1.928528 18.190491 4.06897 27.247192 6.263977 9.093506 2.203797 13.13025 7.576843 12.975831 16.891602-.149964 9.047302-4.705689 14.459411-13.806824 16.316101-1.792053.365661-3.617737.700073-5.438721.770508-27.79602 1.076538-55.616882 2.371032-83.35199-.719056-13.819275-1.539672-26.768921-5.603454-36.344177-17.261413z"/><path d="m410.620728 360.297882c-6.936219-35.69458-31.675873-51.812714-63.890686-59.891907-6.777405-1.699676-13.617646-3.159271-20.362061-4.977417-9.368805-2.525573-12.648865-8.480316-11.68927-20.64389.534241-6.772064 5.688293-11.495148 14.291412-11.985657 27.288422-1.555908 54.575653-2.002319 81.854309.612915 7.977051.764771 15.897187 1.536133 23.550354 3.997742 15.420288 4.959869 26.11496 19.380157 26.977112 35.528198 1.527985 28.620758 1.596741 57.267884 2.215149 85.908905.993164 45.994232.930481 91.985657.293823 137.966767-.526031 37.992492-.232391 75.983276-.717224 113.971618-.365722 28.65625-.71817 57.312866-1.135742 85.968384-.128601 8.825195-.566132 17.646362-.664947 26.471558-.272645 24.343261-14.227967 40.607116-38.517273 43.986877-21.644806 3.011841-43.41153 3.786011-65.254273 2.316712-7.140655-.480347-14.326416-.264283-21.489014-.459717-2.322113-.063416-4.65863-.28833-6.950103-.670044-13.197174-2.198853-18.829651-12.924683-13.407715-25.233277 2.352081-5.339599 6.774536-7.387268 12.092499-8.496887 11.887634-2.480408 23.787719-4.992309 35.376892-8.639648 23.297851-7.332337 36.719665-24.222962 44.385162-46.556214 6.003845-17.492065 8.098297-35.664001 9.023773-53.964721 3.325867-65.768982 2.414032-131.594361 1.916962-197.399933-.206085-27.283539-1.146423-54.605744-4.903229-81.709564-.729706-5.264557-1.937683-10.46283-2.99591-16.1008z"/></svg>