<svg version="1.1" id="Layer_1" xmlns="http://www.w3.org/2000/svg" xmlns:xlink="http://www.w3.org/1999/xlink" x="0px" y="0px"
	 width="100%" viewBox="0 0 1024 1024" enable-background="new 0 0 1024 1024" xml:space="preserve">
<path fill="#000000" opacity="1.000000" stroke="none" 
	d="
M578.962036,780.954712 
	C571.600098,771.466431 570.316284,760.582031 569.943298,749.494019 
	C569.713684,742.667053 569.818115,735.828979 569.769592,728.995850 
	C569.383606,674.670288 569.509888,620.335022 568.473450,566.021851 
	C567.322205,505.691650 567.697876,445.367920 567.860291,385.042511 
	C567.930237,359.064270 568.866577,333.079315 569.870361,307.115265 
	C570.832275,282.233215 584.262939,267.961243 609.109131,264.665985 
	C640.115967,260.553741 671.233398,261.002045 702.359375,262.760620 
	C711.173096,263.258575 716.377258,267.987640 717.204834,275.479187 
	C718.338379,285.740112 714.261230,293.025787 705.600464,295.383789 
	C696.288940,297.918976 686.780029,299.751556 677.519775,302.448578 
	C657.374878,308.315735 640.213501,318.716309 629.387451,337.316406 
	C622.676758,348.845825 620.235657,361.906952 618.321838,374.949127 
	C612.909851,411.829681 613.283386,449.001312 613.170044,486.129242 
	C613.056519,523.294922 613.069397,560.463684 613.442566,597.626953 
	C613.659851,619.272034 614.245972,640.934814 615.496765,662.541626 
	C616.556458,680.846558 620.001587,698.763123 626.884460,715.983459 
	C636.254395,739.426086 653.111877,753.495361 677.680725,758.692993 
	C686.797119,760.621521 695.871216,762.761963 704.927917,764.956970 
	C714.021423,767.160767 718.058167,772.533813 717.903748,781.848572 
	C717.753784,790.895874 713.198059,796.307983 704.096924,798.164673 
	C702.304871,798.530334 700.479187,798.864746 698.658203,798.935181 
	C670.862183,800.011719 643.041321,801.306213 615.306213,798.216125 
	C601.486938,796.676453 588.537292,792.612671 578.962036,780.954712 
z"/>
<path fill="#000000" opacity="1.000000" stroke="none" 
	d="
M410.620728,360.297882 
	C403.684509,324.603302 378.944855,308.485168 346.730042,300.405975 
	C339.952637,298.706299 333.112396,297.246704 326.367981,295.428558 
	C316.999176,292.902985 313.719116,286.948242 314.678711,274.784668 
	C315.212952,268.012604 320.367004,263.289520 328.970123,262.799011 
	C356.258545,261.243103 383.545776,260.796692 410.824432,263.411926 
	C418.801483,264.176697 426.721619,264.948059 434.374786,267.409668 
	C449.795074,272.369537 460.489746,286.789825 461.351898,302.937866 
	C462.879883,331.558624 462.948639,360.205750 463.567047,388.846771 
	C464.560211,434.841003 464.497528,480.832428 463.860870,526.813538 
	C463.334839,564.806030 463.628479,602.796814 463.143646,640.785156 
	C462.777924,669.441406 462.425476,698.098022 462.007904,726.753540 
	C461.879303,735.578735 461.441772,744.399902 461.342957,753.225098 
	C461.070312,777.568359 447.114990,793.832214 422.825684,797.211975 
	C401.180878,800.223816 379.414154,800.997986 357.571411,799.528687 
	C350.430756,799.048340 343.244995,799.264404 336.082397,799.068970 
	C333.760284,799.005554 331.423767,798.780640 329.132294,798.398926 
	C315.935120,796.200073 310.302643,785.474243 315.724579,773.165649 
	C318.076660,767.826050 322.499115,765.778381 327.817078,764.668762 
	C339.704712,762.188354 351.604797,759.676453 363.193970,756.029114 
	C386.491821,748.696777 399.913635,731.806152 407.579132,709.472900 
	C413.582977,691.980835 415.677429,673.808899 416.602905,655.508179 
	C419.928772,589.739197 419.016937,523.913818 418.519867,458.108246 
	C418.313782,430.824707 417.373444,403.502502 413.616638,376.398682 
	C412.886932,371.134125 411.678955,365.935852 410.620728,360.297882 
z"/>
</svg>