<?xml version="1.0" standalone="no"?>
<!DOCTYPE svg PUBLIC "-//W3C//DTD SVG 20010904//EN"
 "http://www.w3.org/TR/2001/REC-SVG-20010904/DTD/svg10.dtd">
<svg version="1.0" xmlns="http://www.w3.org/2000/svg"
 width="720.000000pt" height="720.000000pt" viewBox="0 0 720.000000 720.000000"
 preserveAspectRatio="xMidYMid meet">

<g transform="translate(0.000000,720.000000) scale(0.100000,-0.100000)"
fill="#000000" stroke="none">
<path d="M2075 5641 c-60 -4 -120 -12 -132 -19 -45 -25 -51 -133 -8 -175 7 -8
74 -29 147 -47 280 -70 416 -181 471 -385 53 -195 67 -452 67 -1205 0 -819
-15 -1062 -77 -1235 -36 -101 -75 -165 -138 -224 -70 -66 -128 -93 -290 -131
-171 -41 -185 -47 -201 -86 -28 -67 -12 -123 45 -151 32 -15 70 -17 331 -18
315 0 374 7 461 50 25 13 62 42 82 64 68 75 67 68 77 831 18 1321 9 2412 -20
2521 -21 76 -102 158 -179 179 -102 27 -425 43 -636 31z"/>
<path d="M4685 5640 c-215 -11 -286 -30 -353 -94 -54 -50 -73 -98 -83 -205
-17 -189 -21 -1113 -10 -2107 13 -1148 8 -1085 91 -1165 30 -30 69 -55 106
-68 83 -32 259 -44 511 -38 275 7 303 19 303 126 0 71 -21 85 -196 126 -85 21
-181 50 -213 66 -163 81 -264 291 -291 602 -6 67 -14 410 -17 762 -7 861 8
1182 68 1380 30 101 55 143 118 205 79 78 174 124 338 166 76 20 146 43 156
52 26 23 40 81 30 122 -14 57 -49 67 -248 73 -93 2 -233 1 -310 -3z"/>
</g>
</svg>
